<svg id="Layer_1" data-name="Layer 1" xmlns="http://www.w3.org/2000/svg" xmlns:xlink="http://www.w3.org/1999/xlink" viewBox="0 0 368.61 67.28"><defs><style>.cls-1,.cls-2{fill:#282828;}.cls-2{font-size:50.28px;font-family:HelveticaNeue-Bold, Helvetica Neue;font-weight:700;letter-spacing:0.02em;}.cls-3{letter-spacing:0.02em;}.cls-4{letter-spacing:0.02em;}.cls-5{letter-spacing:0.05em;}.cls-6{letter-spacing:0.01em;}.cls-7{letter-spacing:0.02em;}.cls-8{letter-spacing:0.02em;}.cls-9{letter-spacing:0.03em;}.cls-10,.cls-11{letter-spacing:0.08em;}.cls-11{fill:#fcae47;}.cls-12{fill:none;stroke:#333;stroke-miterlimit:10;stroke-width:2px;letter-spacing:0.03em;}.cls-13{fill:url(#Degradado_sin_nombre_1549);}.cls-14{fill:url(#Degradado_sin_nombre_1754);}.cls-15{fill:url(#Degradado_sin_nombre_1825);}</style><linearGradient id="Degradado_sin_nombre_1549" x1="-590.44" y1="1039.87" x2="-590.43" y2="1039.87" gradientTransform="matrix(1, -0.02, -0.02, -1, 667.7, 1040.31)" gradientUnits="userSpaceOnUse"><stop offset="0.14" stop-color="#ff9178"/><stop offset="0.35" stop-color="#ffab78"/><stop offset="0.59" stop-color="#ffc378"/><stop offset="0.81" stop-color="#ffd278"/><stop offset="1" stop-color="#ffd778"/></linearGradient><linearGradient id="Degradado_sin_nombre_1754" x1="-600" y1="1045.85" x2="-600" y2="1010.76" gradientTransform="matrix(1, -0.02, -0.02, -1, 667.7, 1040.31)" gradientUnits="userSpaceOnUse"><stop offset="0.06" stop-color="#ffe77a"/><stop offset="0.32" stop-color="#ffc579"/><stop offset="0.59" stop-color="#ffa979"/><stop offset="0.83" stop-color="#ff9778"/><stop offset="1" stop-color="#ff9178"/></linearGradient><linearGradient id="Degradado_sin_nombre_1825" x1="-608.87" y1="1035.92" x2="-608.87" y2="1013.88" gradientTransform="matrix(1, -0.02, -0.02, -1, 667.63, 1040.39)" gradientUnits="userSpaceOnUse"><stop offset="0" stop-color="#ff9178"/><stop offset="0.15" stop-color="#ffa378"/><stop offset="0.52" stop-color="#ffc879"/><stop offset="0.81" stop-color="#ffdf7a"/><stop offset="1" stop-color="#ffe77a"/></linearGradient></defs><title>logo_final</title><rect class="cls-1" y="5.3" width="55" height="47.18" rx="7.52"/><text class="cls-2" transform="translate(66.32 43.09)">s<tspan class="cls-3" x="28.13" y="0">h</tspan><tspan class="cls-4" x="58.75" y="0">o</tspan><tspan class="cls-5" x="90.34" y="0">r</tspan><tspan class="cls-6" x="112.43" y="0">t</tspan><tspan class="cls-7" x="130.7" y="0">c</tspan><tspan class="cls-8" x="160.49" y="0">u</tspan><tspan class="cls-9" x="191.45" y="0">t</tspan><tspan class="cls-10" x="210.58" y="0">s</tspan><tspan class="cls-11" x="241.35" y="0">.</tspan><tspan class="cls-12" x="259.1" y="0">ai</tspan></text><path class="cls-13" d="M51.93,15.24h0Z" transform="translate(-16 -0.72)"/><path class="cls-14" d="M45.07,13.3l12.56,6.88a5.61,5.61,0,0,1,2.86,4.71L61,45.65h0A9.78,9.78,0,0,1,51,36.1l-.21-8.51-8.25-4.51-8,4.91,0,1.62a9.77,9.77,0,0,1-9.51,10h0l-.34-13.87a5.64,5.64,0,0,1,2.64-4.85l12.2-7.48a5.63,5.63,0,0,1,5.51-.14Zm-.42,8.49h0Z" transform="translate(-16 -0.72)"/><path class="cls-15" d="M38.19,20.67l4.36,2.41-8,4.91,0,1.62a9.77,9.77,0,0,1-9.51,10l-.34-13.87a5.64,5.64,0,0,1,2.64-4.85A10.78,10.78,0,0,1,38.19,20.67Z" transform="translate(-16 -0.72)"/></svg>